<svg height="512" viewBox="0 0 58 56" width="512" xmlns="http://www.w3.org/2000/svg"><g id="Page-1" fill="none" fill-rule="evenodd"><g id="028---Calorie-Counting" fill="rgb(255, 166, 107)" fill-rule="nonzero"><path id="Shape" d="m32.781 36.375c-.1657145-.2072013-.4069781-.3400545-.670678-.3693128-.2636998-.0292583-.5282179.0474769-.735322.2133128l-3.375 2.7v-1.919c0-.5522847-.4477153-1-1-1s-1 .4477153-1 1v8c0 .5522847.4477153 1 1 1s1-.4477153 1-1v-1.919l3.375 2.7c.2790244.223291.655978.2807626.9888658.1507659.3328879-.1299968.5711366-.4277123.625-.781.0538635-.3532878-.0848414-.7084749-.3638658-.9317659l-4.025-3.219 4.024-3.219c.2073518-.1655696.3403985-.406761.369845-.6704672.0294466-.2637061-.0471215-.528304-.212845-.7355328z"/><path id="Shape" d="m37 38h1c.5522847 0 1 .4477153 1 1s.4477153 1 1 1 1-.4477153 1-1c0-1.6568542-1.3431458-3-3-3h-1c-1.6568542 0-3 1.3431458-3 3v4c0 1.6568542 1.3431458 3 3 3h1c1.6568542 0 3-1.3431458 3-3 0-.5522847-.4477153-1-1-1s-1 .4477153-1 1-.4477153 1-1 1h-1c-.5522847 0-1-.4477153-1-1v-4c0-.5522847.4477153-1 1-1z"/><path id="Shape" d="m46.937 36.649c-.1458609-.3912402-.5194545-.6506706-.937-.6506706s-.7911391.2594304-.937.6506706l-3 8c-.125043.3347579-.0619962.7107965.1653911.9864658s.5845697.4090886.937.35c.3524303-.0590885.6465659-.3017079.7716089-.6364658l.506-1.349h3.114l.506 1.351c.1464095.3905823.5198787.6492605.937.649.1200944-.0004789.2391947-.0217951.352-.063.2484247-.0931594.4496452-.281224.5593638-.5227925s.1189407-.5168373.0256362-.7652075zm-1.744 5.351.807-2.152.807 2.152z"/><path id="Shape" d="m57 44h-4v-7c0-.5522847-.4477153-1-1-1s-1 .4477153-1 1v8c0 .5522847.4477153 1 1 1h5c.5522847 0 1-.4477153 1-1s-.4477153-1-1-1z"/><path id="Shape" d="m16 23v6h3.955c.016-.337.045-20 .045-20-1.5 0-4 0-4 14z"/><path id="Shape" d="m16 49c0 1.1045695.8954305 2 2 2s2-.8954305 2-2v-18h-4z"/><path id="Shape" d="m.246 24.286c-.16236956 1.2313637-.24454273 2.4719781-.246 3.714-.00868036 3.559816.67042875 7.0877878 2 10.39v-12.81c-.6742484-.294443-1.27368978-.7366763-1.754-1.294z"/><path id="Shape" d="m4 49c0 1.1045695.8954305 2 2 2s2-.8954305 2-2v-23h-4z"/><path id="Shape" d="m11 21v-11c.0019672-.2605963-.1015486-.51090968-.287-.694-.0264802-.02135133-.0518469-.04404786-.076-.068-.1758419-.1549664-.4026241-.23969821-.637-.238-.55228475 0-1 .44771525-1 1v8c0 .5522847-.44771525 1-1 1s-1-.4477153-1-1v-8c.0019672-.2605963-.10154856-.51090968-.287-.694-.16436607-.17005142-.38368301-.27634396-.619-.3h-.165c-.51790468.0458101-.91826626.47418406-.929.994v8c0 .5522847-.44771525 1-1 1s-1-.4477153-1-1v-8c.0019672-.2605963-.10154856-.51090968-.287-.694-.36077426-.37706034-.9531626-.40689916-1.35-.068-.22751735.18798833-.36037434.46687823-.363.762v11c-.00291421 1.3666499.92206659 2.5609707 2.246 2.9.24539064.068574.49921784.1022381.754.1h4c.24615195.0032184.49153981-.0280862.729-.093 1.3349477-.3321983 2.2717384-1.5313399 2.271-2.907z"/><path id="Shape" d="m49.19 9.71-.01-.01c-5.3136277-6.159323-13.0453888-9.70030895-21.18-9.7-6.8508478-.02832163-13.4682987 2.48752127-18.57 7.06.18723668-.04076858.37837834-.06088875.57-.06.7221892-.00322854 1.4201463.26028588 1.96.74.0580241.04101708.1116436.0879341.16.14.5663538.55966433.8835333 1.32377875.88 2.12v11c.00368 1.9885776-1.1755586 3.7888819-3 4.58v23.42c0 .13-.03.25-.04.38 1.7699385 1.5070261 3.7259042 2.7807563 5.82 3.79h.01c3.7999486 1.8648771 7.977109 2.8330478 12.21 2.83 1.4738409-.0043582 2.9450519-.12473 4.4-.36-2.584065-1.5267984-4.7246727-3.7018765-6.21-6.31-.3392459-.6052083-.6430899-1.2295909-.91-1.87-.7988849-.5651868-1.2756201-1.4814122-1.28-2.46v-8c.0043799-.9785878.4811151-1.8948132 1.28-2.46 2.6255724-6.3697103 8.8303891-10.5299373 15.72-10.54.28 0 .56.01.84.03 1.2408641.0515042 2.4719689.2427112 3.67.57.01 0 .02.01.03.01 4.2383628 1.199911 7.8517797 3.9860739 10.09 7.78.2431165-1.4507605.3668644-2.9190133.37-4.39.0047713-6.7174909-2.4131326-13.2113915-6.81-18.29zm-27.19 39.29c-.0027548 2.2079969-1.7920031 3.9972452-4 4-.6638003.003793-1.3176489-.1613898-1.9-.48-1.2928665-.6991091-2.0989264-2.050219-2.1-3.52v-26c0-.74.01-1.45.02-2.12.19-10.2 1.83-13.88 5.98-13.88 1.1032019.0032948 1.9967052.89679813 2 2zm24.57-26.15c-.1175839.0472538-.2432805.0710343-.37.07-.0502079.001652-.1004557-.0016979-.15-.01-.3524606-.0516294-.6501781-.2882767-.78-.62-4.06-10.35-13.72-13.42-20.98-11.9-.2599175.0530985-.5302825.0007425-.751589-.1455449-.2213065-.1462873-.3754164-.3745164-.428411-.6344551-.0165401-.06870597-.0232736-.13940701-.02-.21.0005755-.46955354.3302841-.87438555.79-.97 9.85-2.06 19.41 3.34 23.25 13.13.1982761.510803-.0514395 1.0860408-.56 1.29z"/><path id="Shape" d="m56 41c0 .34-.01.67-.04 1h-.96v-5c-.0285423-1.5516279-1.2357437-2.8253715-2.7836107-2.9370465-1.5478671-.111675-2.9254093.9755855-3.1763893 2.5070465l-.23-.62c-.4383346-1.1723228-1.5584098-1.9493335-2.81-1.9493335s-2.3716654.7770107-2.81 1.9493335l-.51 1.35c-.7098085-1.9754817-2.5808742-3.2948229-4.68-3.3h-1c-1.0292159-.0002392-2.0327319.3214454-2.87.92-1.060671-1.1183205-2.8034839-1.2316034-4-.26l-.71.56c-.4243807-.5719174-1.037053-.9756436-1.73-1.14 2.5870387-4.9606476 7.7152922-8.0738172 13.31-8.08.26 0 .52.01.77.02 7.9693987.4207453 14.2187863 6.9995102 14.23 14.98z"/><path id="Shape" d="m54.26 48c-2.5172595 4.7747197-7.4068865 7.827678-12.8019893 7.9932354-5.3951029.1655575-10.4627233-2.5818466-13.2680107-7.1932354-.18-.29-.34-.58-.5-.88.692947-.1643564 1.3056193-.5680826 1.73-1.14l.71.56c1.1965161.9716034 2.939329.8583205 4-.26.8372681.5985546 1.8407841.9202392 2.87.92h1c1.024617.0004807 2.0240519-.3175213 2.86-.91.3081683.3192907.6840745.5653384 1.1.72.3315888.1283305.6844553.1927965 1.04.19 1.2502263-.004985 2.3678482-.7805589 2.81-1.95l.02-.05h.34l.02.05c.5843154 1.5531348 2.3153964 2.3403965 3.87 1.76.1547416-.0632086.3050778-.1367062.45-.22.4523402.2644398.9660512.4057965 1.49.41z"/></g></g></svg>
